<svg width="20" height="17" viewBox="0 0 20 17" fill="none" xmlns="http://www.w3.org/2000/svg">
<path d="M14 10C14 12.2091 12.2091 14 10 14C7.79086 14 6 12.2091 6 10C6 7.79086 7.79086 6 10 6C12.2091 6 14 7.79086 14 10Z" stroke="#222222"/>
<path d="M1 6C1 5.05719 1 4.58579 1.29289 4.29289C1.58579 4 2.05719 4 3 4H4.5C4.96594 4 5.19891 4 5.38268 3.92388C5.62771 3.82239 5.82239 3.62771 5.92388 3.38268C6 3.19891 6 2.96594 6 2.5C6 2.03406 6 1.80109 6.07612 1.61732C6.17761 1.37229 6.37229 1.17761 6.61732 1.07612C6.80109 1 7.03406 1 7.5 1H12.5C12.9659 1 13.1989 1 13.3827 1.07612C13.6277 1.17761 13.8224 1.37229 13.9239 1.61732C14 1.80109 14 2.03406 14 2.5C14 2.96594 14 3.19891 14.0761 3.38268C14.1776 3.62771 14.3723 3.82239 14.6173 3.92388C14.8011 4 15.0341 4 15.5 4H17C17.9428 4 18.4142 4 18.7071 4.29289C19 4.58579 19 5.05719 19 6V14C19 14.9428 19 15.4142 18.7071 15.7071C18.4142 16 17.9428 16 17 16H3C2.05719 16 1.58579 16 1.29289 15.7071C1 15.4142 1 14.9428 1 14V6Z" stroke="#222222"/>
</svg>
