<svg width="20" height="15" viewBox="0 0 20 15" fill="none" xmlns="http://www.w3.org/2000/svg">
<path d="M5 9.5H4.5V10.5H5V9.5ZM9 10.5C9.27614 10.5 9.5 10.2761 9.5 10C9.5 9.72386 9.27614 9.5 9 9.5V10.5ZM2 5.5C1.72386 5.5 1.5 5.72386 1.5 6C1.5 6.27614 1.72386 6.5 2 6.5V5.5ZM19 6.5C19.2761 6.5 19.5 6.27614 19.5 6C19.5 5.72386 19.2761 5.5 19 5.5V6.5ZM5 1.5H15V0.5H5V1.5ZM18.5 5V10H19.5V5H18.5ZM15 13.5H5V14.5H15V13.5ZM1.5 10V5H0.5V10H1.5ZM5 13.5C4.04306 13.5 3.37565 13.4989 2.87208 13.4312C2.3829 13.3655 2.12385 13.2452 1.93934 13.0607L1.23223 13.7678C1.63351 14.169 2.13876 14.3416 2.73883 14.4223C3.32452 14.5011 4.07133 14.5 5 14.5V13.5ZM0.5 10C0.5 10.9287 0.498938 11.6755 0.577682 12.2612C0.65836 12.8612 0.830955 13.3665 1.23223 13.7678L1.93934 13.0607C1.75483 12.8762 1.63453 12.6171 1.56876 12.1279C1.50106 11.6244 1.5 10.9569 1.5 10H0.5ZM18.5 10C18.5 10.9569 18.4989 11.6244 18.4312 12.1279C18.3655 12.6171 18.2452 12.8762 18.0607 13.0607L18.7678 13.7678C19.169 13.3665 19.3416 12.8612 19.4223 12.2612C19.5011 11.6755 19.5 10.9287 19.5 10H18.5ZM15 14.5C15.9287 14.5 16.6755 14.5011 17.2612 14.4223C17.8612 14.3416 18.3665 14.169 18.7678 13.7678L18.0607 13.0607C17.8762 13.2452 17.6171 13.3655 17.1279 13.4312C16.6244 13.4989 15.9569 13.5 15 13.5V14.5ZM15 1.5C15.9569 1.5 16.6244 1.50106 17.1279 1.56876C17.6171 1.63453 17.8762 1.75483 18.0607 1.93934L18.7678 1.23223C18.3665 0.830955 17.8612 0.65836 17.2612 0.577682C16.6755 0.498938 15.9287 0.5 15 0.5V1.5ZM19.5 5C19.5 4.07133 19.5011 3.32452 19.4223 2.73883C19.3416 2.13876 19.169 1.63351 18.7678 1.23223L18.0607 1.93934C18.2452 2.12385 18.3655 2.3829 18.4312 2.87208C18.4989 3.37565 18.5 4.04306 18.5 5H19.5ZM5 0.5C4.07133 0.5 3.32452 0.498938 2.73883 0.577682C2.13876 0.65836 1.63351 0.830955 1.23223 1.23223L1.93934 1.93934C2.12385 1.75483 2.3829 1.63453 2.87208 1.56876C3.37565 1.50106 4.04306 1.5 5 1.5V0.5ZM1.5 5C1.5 4.04306 1.50106 3.37565 1.56876 2.87208C1.63453 2.3829 1.75483 2.12385 1.93934 1.93934L1.23223 1.23223C0.830955 1.63351 0.65836 2.13876 0.577682 2.73883C0.498938 3.32452 0.5 4.07133 0.5 5H1.5ZM5 10.5H9V9.5H5V10.5ZM2 6.5H19V5.5H2V6.5Z" fill="#33363F"/>
</svg>
