<svg width="18" height="18" viewBox="0 0 18 18" fill="none" xmlns="http://www.w3.org/2000/svg">
<path d="M9 12L8.99999 14.7324C8.99999 14.8996 8.91644 15.0557 8.77734 15.1484L6.77734 16.4818C6.44507 16.7033 5.99999 16.4651 5.99999 16.0657V9.41421C5.99999 9.14899 5.89464 8.89464 5.7071 8.7071L1.29289 4.29289C1.10536 4.10536 1 3.851 1 3.58579V2C1 1.44772 1.44772 1 2 1H16C16.5523 1 17 1.44772 17 2V3.58579C17 3.851 16.8946 4.10536 16.7071 4.29289L9 12ZM9 12C9 12 9 12 9 12Z" stroke="#222222"/>
</svg>
