<svg width="20" height="17" viewBox="0 0 20 17" fill="none" xmlns="http://www.w3.org/2000/svg">
<path d="M10.6281 3.17172C11.8507 0.609918 15.3435 0.233792 17.0836 2.47654L17.3929 2.87527C18.8801 4.79203 18.6654 7.52545 16.8972 9.18649L16.5255 9.53566C16.7746 9.75903 16.9916 10.0176 17.1686 10.3035L17.5818 9.91534C19.726 7.90114 19.9863 4.58656 18.183 2.26227L17.8737 1.86354C15.6774 -0.96723 11.2688 -0.492488 9.72559 2.74099C9.71963 2.75348 9.71458 2.75663 9.71227 2.75801C9.70809 2.76053 9.70047 2.76333 9.69016 2.76333C9.67986 2.76333 9.67224 2.76053 9.66805 2.75801C9.66575 2.75663 9.6607 2.75348 9.65474 2.74099C8.11149 -0.492488 3.70295 -0.967226 1.50666 1.86355L1.19731 2.26227C-0.606024 4.58657 -0.345647 7.90114 1.7985 9.91533L8.76504 16.4597C8.8727 16.5608 8.97815 16.6599 9.07543 16.7348C9.1836 16.8182 9.32043 16.9032 9.4976 16.938C9.62476 16.9629 9.75557 16.9629 9.88273 16.938C10.0599 16.9032 10.1967 16.8182 10.3049 16.7348C10.4022 16.6599 10.5077 16.5608 10.6153 16.4596L12.1688 15.0003C11.8949 14.8062 11.6501 14.5738 11.4423 14.3107L9.94454 15.7177C9.81753 15.837 9.74827 15.9013 9.6947 15.9426L9.69016 15.9461L9.68563 15.9426C9.63206 15.9013 9.5628 15.837 9.43579 15.7177L2.48318 9.18649C0.714972 7.52545 0.500248 4.79204 1.98739 2.87527L2.29675 2.47655C4.03681 0.233795 7.52958 0.609919 8.75226 3.17172C9.12874 3.96054 10.2516 3.96054 10.6281 3.17172Z" fill="#222222"/>
</svg>
