<svg width="17" height="19" viewBox="0 0 17 19" fill="none" xmlns="http://www.w3.org/2000/svg">
<path d="M1 9.27119C1 7.83296 1 7.11384 1.29407 6.48173C1.58813 5.84962 2.14039 5.38163 3.24491 4.44564L4.31634 3.53769C6.31275 1.8459 7.31096 1 8.5 1C9.68904 1 10.6872 1.8459 12.6837 3.53769L13.7551 4.44564C14.8596 5.38163 15.4119 5.84962 15.7059 6.48173C16 7.11384 16 7.83296 16 9.27119V13.7629C16 15.7603 16 16.759 15.3724 17.3795C14.7447 18 13.7346 18 11.7143 18H5.28571C3.26541 18 2.25526 18 1.62763 17.3795C1 16.759 1 15.7603 1 13.7629V9.27119Z" fill="white"/>
<path d="M4.31634 3.53769L4.63959 3.91915L4.63959 3.91915L4.31634 3.53769ZM12.6837 3.53769L12.3604 3.91915L12.3604 3.91915L12.6837 3.53769ZM13.7551 4.44564L14.0783 4.06418L14.0783 4.06418L13.7551 4.44564ZM3.24491 4.44564L2.92166 4.06418L2.92166 4.06418L3.24491 4.44564ZM9 11C9 10.7239 8.77614 10.5 8.5 10.5C8.22386 10.5 8 10.7239 8 11L9 11ZM15.5 9.27119V13.7629H16.5V9.27119H15.5ZM11.7143 17.5H5.28571V18.5H11.7143V17.5ZM1.5 13.7629V9.27119H0.5V13.7629H1.5ZM3.56816 4.82709L4.63959 3.91915L3.99309 3.15623L2.92166 4.06418L3.56816 4.82709ZM12.3604 3.91915L13.4318 4.82709L14.0783 4.06418L13.0069 3.15623L12.3604 3.91915ZM4.63959 3.91915C5.64761 3.06493 6.36883 2.45496 6.9843 2.05308C7.58794 1.65892 8.03907 1.5 8.5 1.5V0.5C7.77188 0.5 7.12939 0.764029 6.43757 1.21577C5.75757 1.65978 4.98148 2.31865 3.99309 3.15623L4.63959 3.91915ZM13.0069 3.15623C12.0185 2.31865 11.2424 1.65978 10.5624 1.21577C9.87061 0.764029 9.22812 0.5 8.5 0.5V1.5C8.96093 1.5 9.41206 1.65892 10.0157 2.05308C10.6312 2.45496 11.3524 3.06493 12.3604 3.91915L13.0069 3.15623ZM5.28571 17.5C4.26158 17.5 3.54322 17.499 3.0003 17.4268C2.47118 17.3565 2.18437 17.2268 1.97916 17.0239L1.2761 17.7351C1.69851 18.1527 2.23059 18.3333 2.86854 18.4181C3.49267 18.501 4.28954 18.5 5.28571 18.5V17.5ZM0.5 13.7629C0.5 14.7473 0.498914 15.5365 0.583014 16.1549C0.66915 16.7883 0.852894 17.3167 1.2761 17.7351L1.97916 17.0239C1.77473 16.8218 1.64466 16.5406 1.57389 16.0202C1.50109 15.4848 1.5 14.7759 1.5 13.7629H0.5ZM15.5 13.7629C15.5 14.7759 15.4989 15.4848 15.4261 16.0202C15.3553 16.5406 15.2253 16.8218 15.0208 17.0239L15.7239 17.7351C16.1471 17.3167 16.3308 16.7883 16.417 16.1549C16.5011 15.5365 16.5 14.7473 16.5 13.7629H15.5ZM11.7143 18.5C12.7105 18.5 13.5073 18.501 14.1315 18.4181C14.7694 18.3333 15.3015 18.1527 15.7239 17.7351L15.0208 17.0239C14.8156 17.2268 14.5288 17.3565 13.9997 17.4268C13.4568 17.499 12.7384 17.5 11.7143 17.5V18.5ZM16.5 9.27119C16.5 7.87909 16.5109 7.02664 16.1593 6.27083L15.2526 6.69263C15.4891 7.20104 15.5 7.78682 15.5 9.27119H16.5ZM13.4318 4.82709C14.5716 5.79298 15.0157 6.18344 15.2526 6.69263L16.1593 6.27083C15.808 5.51581 15.1476 4.97027 14.0783 4.06418L13.4318 4.82709ZM1.5 9.27119C1.5 7.78682 1.51089 7.20104 1.74741 6.69263L0.840722 6.27083C0.489106 7.02664 0.5 7.87909 0.5 9.27119H1.5ZM2.92166 4.06418C1.85243 4.97027 1.19197 5.51581 0.840722 6.27083L1.74741 6.69263C1.98429 6.18344 2.42836 5.79298 3.56816 4.82709L2.92166 4.06418ZM9 18L9 11L8 11L8 18L9 18Z" fill="black"/>
</svg>
