<svg width="19" height="19" viewBox="0 0 19 19" fill="none" xmlns="http://www.w3.org/2000/svg">
<path d="M9 14C9 14.2761 9.22386 14.5 9.5 14.5C9.77614 14.5 10 14.2761 10 14H9ZM10 8C10 7.72386 9.77614 7.5 9.5 7.5C9.22386 7.5 9 7.72386 9 8H10ZM17.5 9.5C17.5 13.9183 13.9183 17.5 9.5 17.5V18.5C14.4706 18.5 18.5 14.4706 18.5 9.5H17.5ZM9.5 17.5C5.08172 17.5 1.5 13.9183 1.5 9.5H0.5C0.5 14.4706 4.52944 18.5 9.5 18.5V17.5ZM1.5 9.5C1.5 5.08172 5.08172 1.5 9.5 1.5V0.5C4.52944 0.5 0.5 4.52944 0.5 9.5H1.5ZM9.5 1.5C13.9183 1.5 17.5 5.08172 17.5 9.5H18.5C18.5 4.52944 14.4706 0.5 9.5 0.5V1.5ZM9.5 5.5V6.5C10.0523 6.5 10.5 6.05228 10.5 5.5H9.5ZM9.5 5.5H8.5C8.5 6.05228 8.94772 6.5 9.5 6.5V5.5ZM9.5 5.5V4.5C8.94772 4.5 8.5 4.94772 8.5 5.5H9.5ZM9.5 5.5H10.5C10.5 4.94772 10.0523 4.5 9.5 4.5V5.5ZM10 14V8H9V14H10Z" fill="#222222"/>
</svg>
