<svg width="16" height="20" viewBox="0 0 16 20" fill="none" xmlns="http://www.w3.org/2000/svg">
<path d="M12 11V5C12 2.79086 10.2091 1 8 1C5.79086 1 4 2.79086 4 5V11M5.8 19H10.2C11.8802 19 12.7202 19 13.362 18.673C13.9265 18.3854 14.3854 17.9265 14.673 17.362C15 16.7202 15 15.8802 15 14.2C15 13.0799 15 12.5198 14.782 12.092C14.5903 11.7157 14.2843 11.4097 13.908 11.218C13.4802 11 12.9201 11 11.8 11H4.2C3.0799 11 2.51984 11 2.09202 11.218C1.71569 11.4097 1.40973 11.7157 1.21799 12.092C1 12.5198 1 13.0799 1 14.2C1 15.8802 1 16.7202 1.32698 17.362C1.6146 17.9265 2.07354 18.3854 2.63803 18.673C3.27976 19 4.11984 19 5.8 19ZM10 15C10 16.1046 9.10457 17 8 17C6.89543 17 6 16.1046 6 15C6 13.8954 6.89543 13 8 13C9.10457 13 10 13.8954 10 15Z" stroke="black"/>
</svg>
