<svg width="18" height="18" viewBox="0 0 18 18" fill="none" xmlns="http://www.w3.org/2000/svg">
<path fill-rule="evenodd" clip-rule="evenodd" d="M8.72916 0C5.62788 0 3.02254 2.33189 2.68006 5.4142L2.42826 7.68042L2.42201 7.73626C2.30112 8.78972 1.95822 9.80557 1.41594 10.7168L1.38707 10.765L0.809038 11.7284L0.795111 11.7516C0.544683 12.169 0.337233 12.5147 0.202396 12.801C0.0663067 13.0899 -0.038586 13.4025 0.0136849 13.7338C0.0701968 14.0919 0.25453 14.4175 0.532574 14.6502C0.789752 14.8655 1.11173 14.9364 1.42953 14.9683C1.7444 15 2.1476 15 2.63432 15H2.66139H14.7969H14.824C15.3107 15 15.7139 15 16.0288 14.9683C16.3466 14.9364 16.6686 14.8655 16.9258 14.6502C17.2038 14.4175 17.3881 14.0919 17.4446 13.7338C17.4969 13.4025 17.392 13.0899 17.2559 12.801C17.1211 12.5147 16.9137 12.169 16.6633 11.7517L16.6632 11.7516L16.6493 11.7284L16.0713 10.765L16.0424 10.7168C15.5001 9.80557 15.1572 8.78972 15.0363 7.73626L15.0301 7.68042L14.8738 6.27389C14.5687 6.39993 14.2383 6.4771 13.8923 6.49564L14.0362 7.79085L14.0428 7.85026C14.1798 9.04418 14.5685 10.1955 15.1831 11.2282L15.2138 11.2795L15.7918 12.2429C16.0597 12.6894 16.2405 12.9918 16.3512 13.2271C16.4633 13.4649 16.4612 13.5504 16.4569 13.5779C16.438 13.6973 16.3766 13.8058 16.2839 13.8834C16.2625 13.9013 16.1903 13.947 15.9287 13.9734C15.67 13.9994 15.3176 14 14.7969 14H2.66139C2.14071 14 1.78836 13.9994 1.52963 13.9734C1.26801 13.947 1.19582 13.9013 1.17443 13.8834C1.08175 13.8058 1.0203 13.6973 1.00146 13.5779C0.997116 13.5504 0.995052 13.4649 1.10708 13.2271C1.21788 12.9918 1.39864 12.6894 1.66653 12.2429L2.24457 11.2795L2.27528 11.2282C2.88987 10.1955 3.27848 9.04418 3.41549 7.85026L3.42215 7.79085L3.67395 5.52463C3.96016 2.94875 6.13743 1 8.72916 1C9.67181 1 10.5596 1.2578 11.3216 1.7098C11.5285 1.43205 11.7822 1.19132 12.0712 0.99934C11.1082 0.365876 9.95761 0 8.72916 0ZM12.9184 1.67115C12.6036 1.81089 12.3317 2.02951 12.1275 2.30192C13.0223 3.1054 13.6335 4.22482 13.7815 5.49933C14.1361 5.49021 14.4678 5.3888 14.7533 5.21822C14.5525 3.82034 13.8841 2.58721 12.9184 1.67115Z" fill="#222222"/>
<path d="M5.83135 14.9059C6.00227 15.6501 6.37891 16.3077 6.90284 16.7767C7.42677 17.2458 8.06872 17.5 8.72913 17.5C9.38953 17.5 10.0315 17.2458 10.5554 16.7767C11.0793 16.3077 11.456 15.6501 11.6269 14.9059" stroke="#222222" stroke-linecap="round"/>
<circle cx="13.7291" cy="3.5" r="2" fill="white" stroke="black"/>
</svg>
