<svg width="17" height="17" viewBox="0 0 17 17" fill="none" xmlns="http://www.w3.org/2000/svg">
<path d="M8.00001 8.99997L11 5.99997M7.05133 8.68375L4.69211 7.89734C2.3389 7.11294 1.16229 6.72073 1.16229 5.99997C1.16229 5.27921 2.3389 4.88701 4.69212 4.10261L13.2053 1.26488C14.8611 0.712955 15.689 0.43699 16.126 0.874006C16.563 1.31102 16.287 2.13892 15.7351 3.79471L12.8974 12.3079C12.113 14.6611 11.7208 15.8377 11 15.8377C10.2793 15.8377 9.88705 14.6611 9.10265 12.3079L8.31624 9.94866C8.16107 9.48313 8.08348 9.25036 7.91655 9.08344C7.74963 8.91651 7.51686 8.83892 7.05133 8.68375Z" stroke="#33363F" stroke-linecap="round"/>
</svg>
