<svg width="16" height="16" viewBox="0 0 16 16" fill="none" xmlns="http://www.w3.org/2000/svg">
<path d="M13.3119 3.44115L13.6914 3.11552L13.6914 3.11552L13.3119 3.44115ZM9.07473 1.08301L9.15149 0.588939L9.15149 0.588939L9.07473 1.08301ZM4.32175 2.0443L4.58448 2.46971L4.58448 2.46971L4.32175 2.0443ZM11 8.5L11.3321 8.87378L11.7528 8.5L11.3321 8.12622L11 8.5ZM1 8C0.723858 8 0.5 8.22386 0.5 8.5C0.5 8.77614 0.723858 9 1 9V8ZM1.02442 10.6544C1.58232 12.3733 2.57712 13.4735 4.08266 14.3957L4.60497 13.5429C3.26566 12.7226 2.44755 11.7998 1.97558 10.3456L1.02442 10.6544ZM4.08266 14.3957C5.60668 15.3291 7.41394 15.6877 9.17891 15.4068L9.02172 14.4192C7.49209 14.6627 5.92579 14.3519 4.60497 13.5429L4.08266 14.3957ZM9.17891 15.4068C10.9439 15.1259 12.5505 14.2239 13.7094 12.8634L12.9481 12.215C11.9438 13.3941 10.5513 14.1757 9.02172 14.4192L9.17891 15.4068ZM13.7094 12.8634C14.8683 11.5029 15.5033 9.77331 15.5 7.98614L14.5 7.98799C14.5029 9.53687 13.9525 11.0359 12.9481 12.215L13.7094 12.8634ZM15.5 7.98614C15.4967 6.19897 14.8553 4.47171 13.6914 3.11552L12.9325 3.76678C13.9413 4.94215 14.4971 6.43911 14.5 7.98799L15.5 7.98614ZM13.6914 3.11552C12.5274 1.75932 10.9175 0.863328 9.15149 0.588939L8.99796 1.57708C10.5285 1.81489 11.9238 2.59141 12.9325 3.76678L13.6914 3.11552ZM9.15149 0.588939C7.3855 0.314549 5.57958 0.6798 4.05902 1.6189L4.58448 2.46971C5.9023 1.65583 7.46744 1.33928 8.99796 1.57708L9.15149 0.588939ZM4.05902 1.6189C2.53846 2.55799 1.40323 4.00921 0.857805 5.71112L1.8101 6.01631C2.2828 4.54131 3.26667 3.2836 4.58448 2.46971L4.05902 1.6189ZM6.72851 5.37378L10.6679 8.87378L11.3321 8.12622L7.3927 4.62622L6.72851 5.37378ZM10.6679 8.12622L6.72851 11.6262L7.3927 12.3738L11.3321 8.87378L10.6679 8.12622ZM11 8H1V9H11V8Z" fill="#222222"/>
</svg>
