<svg width="15" height="16" viewBox="0 0 15 16" fill="none" xmlns="http://www.w3.org/2000/svg">
<path d="M14 5L14.3123 5.39043L14.7752 5.02012L14.3322 4.62629L14 5ZM1 4.5C0.723858 4.5 0.5 4.72386 0.5 5C0.5 5.27614 0.723858 5.5 1 5.5L1 4.5ZM1 11.5L0.687653 11.1096L0.224763 11.4799L0.667818 11.8737L1 11.5ZM14 12C14.2761 12 14.5 11.7761 14.5 11.5C14.5 11.2239 14.2761 11 14 11V12ZM9.16782 1.3737L13.6678 5.3737L14.3322 4.62629L9.83218 0.626295L9.16782 1.3737ZM13.6877 4.60957L8.68765 8.60957L9.31235 9.39043L14.3123 5.39043L13.6877 4.60957ZM14 4.5L1 4.5L1 5.5L14 5.5L14 4.5ZM5.83218 15.1263L1.33218 11.1263L0.667818 11.8737L5.16782 15.8737L5.83218 15.1263ZM1.31235 11.8904L6.31235 7.89044L5.68765 7.10957L0.687653 11.1096L1.31235 11.8904ZM1 12H14V11H1V12Z" fill="#33363F"/>
</svg>
